<?xml version="1.0" encoding="UTF-8" standalone="no"?>
<svg width="57px" height="43px" viewBox="0 0 57 43" version="1.1" xmlns="http://www.w3.org/2000/svg" xmlns:xlink="http://www.w3.org/1999/xlink">
    <!-- Generator: Sketch 39.1 (31720) - http://www.bohemiancoding.com/sketch -->
    <title>Associacao_dos_Usineiros_do_Estado_de_Sao_Paulo_logo Copy</title>
    <desc>Created with Sketch.</desc>
    <defs></defs>
    <g id="Page-3-drop-down---Letter" stroke="none" stroke-width="1" fill="none" fill-rule="evenodd">
        <g id="Desktop" transform="translate(-51.000000, -160.000000)" fill="#000000">
            <g id="Associacao_dos_Usineiros_do_Estado_de_Sao_Paulo_logo-Copy" transform="translate(51.000000, 160.153572)">
                <g id="Associacao_x5F_dos_x5F_Usineiros_x5F_do_x5F_Estado_x5F_de_x5F_Sao_x5F_Paulo">
                    <path d="M22.5013343,0.0657334145 C23.1117928,-0.0342361534 24.0723672,0.0602556299 24.8678968,0.030812538 C27.176452,-0.0547778454 29.7377535,0.0657334145 31.8992185,0.0657334145 C33.6801829,0.0643639684 34.5848216,0.384129641 35.5005093,1.22154595 C36.2967295,1.9500913 36.7842676,3.01072733 37.2497077,4.21447048 C37.6523065,5.25661899 38.3311308,6.27959525 38.8614839,7.3436549 C40.4200866,10.4673615 42.2058849,13.5746348 43.6975029,16.729154 C44.6484094,18.7408704 45.8527528,20.8231132 46.956274,22.9532867 C49.1508861,27.1910377 51.2156721,31.2356969 53.4731256,35.401552 C54.2893721,36.9045192 55.0959507,38.4519933 55.9087445,40.0946439 C56.1525135,40.5869598 56.6669836,41.3141357 56.5261086,41.6927876 C56.3362035,42.203591 55.1912486,42.0324102 54.4343905,42.0324102 L47.4369064,42.0324102 C46.5785355,42.0324102 45.8928056,42.0954047 45.0703439,42.0324102 C44.3569914,41.9790018 43.7928007,41.6674528 43.3556738,41.3531649 C42.3916465,40.6602252 41.9710931,39.6276628 41.3661591,38.5649726 C40.1901288,36.4977937 39.2074564,34.328591 38.0735504,32.2730523 C37.782823,31.7458156 37.4955484,31.2377511 37.2165606,30.7084601 C36.9361917,30.1777998 36.7711469,29.5848296 36.4963025,29.0418442 C34.8872886,25.8695222 33.2955388,22.7444461 31.6602834,19.5200852 C31.1250964,18.4635575 30.5015172,17.4405813 30.0139791,16.3573494 C29.5298938,15.2809647 28.8883599,14.2723676 28.3676747,13.2281649 C26.4941748,9.47314364 24.6400108,5.96530736 22.6394471,2.17468046 C22.427444,1.77343274 21.8632533,0.925745587 21.9178078,0.50669507 C21.95717,0.208840536 22.1885089,0.116402921 22.5013343,0.0657334145 L22.5013343,0.0657334145 Z" id="Shape"></path>
                    <path d="M0.000690563907,41.6236306 C-0.0234791728,40.9094644 0.475798532,40.3384054 0.790005109,39.7543366 C1.73331541,37.9987066 2.70493882,36.2156878 3.6026719,34.4141814 C4.20829645,33.1994827 4.7296722,31.9642422 5.4547643,30.8084297 C6.50580257,29.1356512 7.37867534,27.3101795 8.30195929,25.5031954 C9.21902816,23.7085362 10.0635878,21.8789562 11.0462603,20.096622 C11.6726017,18.9599817 12.2478414,17.6596926 12.9667185,16.5942635 C13.7484368,15.4350274 14.7317998,14.6202069 16.4651152,14.5188679 C17.3290107,14.4695679 18.2819889,14.5537888 19.2432538,14.5537888 C21.1899535,14.5537888 22.8210654,14.6195222 24.8685874,14.5537888 C25.5018345,14.5339318 27.0804636,14.3586427 27.2696781,14.8256239 C27.4285078,15.2172855 26.809072,16.1416616 26.5839482,16.5600274 C22.8189937,23.5544735 19.2273709,30.553028 15.4700126,37.5769172 C14.4362385,39.5092057 13.6987162,41.669507 11.0794073,41.9646226 C9.98900691,42.0865033 8.61478474,42.0248783 7.2723285,41.9981741 C5.47617178,41.9632532 3.43348374,41.9646226 1.57862909,41.9646226 C1.02134402,41.9646226 0.320421653,42.1090992 0.000690563907,41.6236306 L0.000690563907,41.6236306 Z" id="Shape"></path>
                    <path d="M41.3316309,41.6585514 C40.8875984,42.2789105 39.7426434,42.102252 38.7592804,42.0666464 C36.8160336,41.9947505 35.0343787,42.0317255 32.9972152,42.0317255 C31.6243741,42.0317255 30.1438051,42.1857882 29.1556081,41.7934419 C27.5376169,41.1525411 26.7607325,39.3140596 25.9658935,37.7467285 C25.5094307,36.8470024 24.9749343,35.9589166 24.490849,35.0947961 C24.0150504,34.2457395 23.5572066,33.3158856 23.0503326,32.3730219 C22.8224466,31.9491783 22.5814398,31.4972611 22.3300745,31.0131619 C22.0200113,30.4181376 21.190644,29.3438071 22.1926523,29.1767346 C22.9764423,29.0459525 23.9791411,29.1767346 24.902425,29.1767346 C26.6688875,29.1767346 28.5700099,29.1075776 30.3219706,29.1767346 C31.9910635,29.242468 33.4806099,29.0267803 34.5751537,29.6861686 C35.8602931,30.4605904 36.5446419,31.9943701 37.1475042,33.3932593 C37.4492807,34.0944157 37.8532605,34.7853013 38.2109727,35.4672855 C38.9194912,36.8216677 39.6162702,38.1781041 40.3379095,39.5489197 C40.6976933,40.2343274 41.1513938,40.8868685 41.3316309,41.6585514 L41.3316309,41.6585514 Z" id="Shape"></path>
                </g>
            </g>
        </g>
    </g>
</svg>